<svg width="108" height="16" viewBox="0 0 108 16" fill="none" xmlns="http://www.w3.org/2000/svg">
<g clip-path="url(#clip0_1_262)">
<path d="M0.884528 8.26684L3.25786 10.0002L2.35653 12.7915C2.21087 13.2244 2.20902 13.6928 2.35127 14.1269C2.49351 14.561 2.77223 14.9374 3.14586 15.2002C3.5131 15.4714 3.95812 15.6166 4.41463 15.6144C4.87114 15.6121 5.31469 15.4624 5.6792 15.1875L7.99986 13.4795L10.3212 15.1855C10.6878 15.4551 11.1304 15.6016 11.5854 15.6038C12.0405 15.606 12.4845 15.4639 12.8537 15.1978C13.2229 14.9318 13.4982 14.5555 13.6401 14.1232C13.7819 13.6908 13.783 13.2246 13.6432 12.7915L12.7419 10.0002L15.1152 8.26684C15.4813 7.99918 15.7534 7.62267 15.8928 7.1911C16.0321 6.75953 16.0315 6.29496 15.891 5.86377C15.7505 5.43257 15.4774 5.05679 15.1105 4.79011C14.7437 4.52343 14.302 4.37949 13.8485 4.37884H10.9332L10.0485 1.62151C9.90941 1.18748 9.63604 0.808849 9.26784 0.540217C8.89964 0.271584 8.45564 0.126831 7.99986 0.126831C7.54408 0.126831 7.10008 0.271584 6.73188 0.540217C6.36368 0.808849 6.09031 1.18748 5.9512 1.62151L5.06653 4.37884H2.15386C1.70036 4.37949 1.25866 4.52343 0.891848 4.79011C0.52504 5.05679 0.251889 5.43257 0.111409 5.86377C-0.0290704 6.29496 -0.0296922 6.75953 0.109633 7.1911C0.248957 7.62267 0.521102 7.99918 0.887195 8.26684H0.884528Z" fill="#FFE605"/>
</g>
<g clip-path="url(#clip1_1_262)">
<path d="M23.8845 8.26684L26.2579 10.0002L25.3565 12.7915C25.2109 13.2244 25.209 13.6928 25.3513 14.1269C25.4935 14.561 25.7722 14.9374 26.1459 15.2002C26.5131 15.4714 26.9581 15.6166 27.4146 15.6144C27.8711 15.6121 28.3147 15.4624 28.6792 15.1875L30.9999 13.4795L33.3212 15.1855C33.6878 15.4551 34.1304 15.6016 34.5855 15.6038C35.0405 15.606 35.4845 15.4639 35.8537 15.1978C36.2229 14.9318 36.4982 14.5555 36.6401 14.1232C36.7819 13.6908 36.783 13.2246 36.6432 12.7915L35.7419 10.0002L38.1152 8.26684C38.4813 7.99918 38.7534 7.62267 38.8928 7.1911C39.0321 6.75953 39.0315 6.29496 38.891 5.86377C38.7505 5.43257 38.4774 5.05679 38.1106 4.79011C37.7437 4.52343 37.302 4.37949 36.8485 4.37884H33.9332L33.0485 1.62151C32.9094 1.18748 32.636 0.808849 32.2678 0.540217C31.8997 0.271584 31.4556 0.126831 30.9999 0.126831C30.5441 0.126831 30.1001 0.271584 29.7319 0.540217C29.3637 0.808849 29.0903 1.18748 28.9512 1.62151L28.0665 4.37884H25.1539C24.7004 4.37949 24.2587 4.52343 23.8919 4.79011C23.525 5.05679 23.2519 5.43257 23.1114 5.86377C22.9709 6.29496 22.9703 6.75953 23.1096 7.1911C23.249 7.62267 23.5211 7.99918 23.8872 8.26684H23.8845Z" fill="#FFE605"/>
</g>
<g clip-path="url(#clip2_1_262)">
<path d="M46.8845 8.26684L49.2579 10.0002L48.3565 12.7915C48.2109 13.2244 48.209 13.6928 48.3513 14.1269C48.4935 14.561 48.7722 14.9374 49.1459 15.2002C49.5131 15.4714 49.9581 15.6166 50.4146 15.6144C50.8711 15.6121 51.3147 15.4624 51.6792 15.1875L53.9999 13.4795L56.3212 15.1855C56.6878 15.4551 57.1304 15.6016 57.5855 15.6038C58.0405 15.606 58.4845 15.4639 58.8537 15.1978C59.2229 14.9318 59.4982 14.5555 59.6401 14.1232C59.7819 13.6908 59.783 13.2246 59.6432 12.7915L58.7419 10.0002L61.1152 8.26684C61.4813 7.99918 61.7534 7.62267 61.8928 7.1911C62.0321 6.75953 62.0315 6.29496 61.891 5.86377C61.7505 5.43257 61.4774 5.05679 61.1106 4.79011C60.7437 4.52343 60.302 4.37949 59.8485 4.37884H56.9332L56.0485 1.62151C55.9094 1.18748 55.636 0.808849 55.2678 0.540217C54.8997 0.271584 54.4556 0.126831 53.9999 0.126831C53.5441 0.126831 53.1001 0.271584 52.7319 0.540217C52.3637 0.808849 52.0903 1.18748 51.9512 1.62151L51.0665 4.37884H48.1539C47.7004 4.37949 47.2587 4.52343 46.8919 4.79011C46.525 5.05679 46.2519 5.43257 46.1114 5.86377C45.9709 6.29496 45.9703 6.75953 46.1096 7.1911C46.249 7.62267 46.5211 7.99918 46.8872 8.26684H46.8845Z" fill="#FFE605"/>
</g>
<g clip-path="url(#clip3_1_262)">
<path d="M74.568 15.6249C74.0592 15.6226 73.5642 15.4592 73.154 15.1582C72.7348 14.8633 72.422 14.441 72.2621 13.954C72.1023 13.4671 72.1039 12.9415 72.2667 12.4555L73.0467 10.0429L70.9933 8.54153C70.5816 8.24073 70.2756 7.81742 70.1191 7.33216C69.9625 6.8469 69.9635 6.32457 70.1218 5.83988C70.2801 5.3552 70.5877 4.933 71.0004 4.6337C71.4132 4.33439 71.9101 4.17333 72.42 4.17353H74.9333L75.6967 1.79353C75.8533 1.30616 76.1606 0.88108 76.5743 0.579519C76.988 0.277959 77.4867 0.115479 77.9987 0.115479C78.5106 0.115479 79.0093 0.277959 79.423 0.579519C79.8367 0.88108 80.144 1.30616 80.3007 1.79353L81.0667 4.17353H83.58C84.0898 4.17347 84.5866 4.33464 84.9993 4.63399C85.412 4.93334 85.7194 5.35554 85.8777 5.8402C86.0359 6.32485 86.0368 6.84713 85.8802 7.33232C85.7237 7.81751 85.4177 8.24077 85.006 8.54153L82.9533 10.0429L83.7333 12.4555C83.8906 12.9422 83.8895 13.4662 83.7301 13.9522C83.5707 14.4382 83.2612 14.8611 82.8463 15.1601C82.4313 15.4591 81.9322 15.6187 81.4208 15.6161C80.9093 15.6135 80.4119 15.4487 80 15.1455L78 13.6749L76 15.1462C75.5862 15.4549 75.0843 15.6226 74.568 15.6249ZM72.42 6.17353C72.332 6.17352 72.2463 6.20133 72.175 6.25298C72.1038 6.30462 72.0507 6.37747 72.0233 6.46111C71.996 6.54474 71.9957 6.63488 72.0227 6.71865C72.0496 6.80242 72.1024 6.87553 72.1733 6.92753L74.8107 8.85487C74.9805 8.97904 75.1068 9.15361 75.1717 9.35373C75.2366 9.55386 75.2367 9.76934 75.172 9.96953L74.172 13.0695C74.1443 13.1536 74.144 13.2444 74.1712 13.3286C74.1984 13.4129 74.2517 13.4863 74.3234 13.5383C74.3951 13.5902 74.4815 13.618 74.5701 13.6176C74.6586 13.6173 74.7447 13.5888 74.816 13.5362L77.4087 11.6289C77.5804 11.5025 77.7881 11.4343 78.0013 11.4343C78.2146 11.4343 78.4223 11.5025 78.594 11.6289L81.1867 13.5355C81.2579 13.5886 81.3441 13.6175 81.4329 13.6181C81.5216 13.6187 81.6083 13.5909 81.6802 13.5388C81.752 13.4868 81.8054 13.4131 81.8325 13.3285C81.8596 13.244 81.8589 13.153 81.8307 13.0689L80.8307 9.96887C80.766 9.76868 80.7661 9.55319 80.831 9.35307C80.8959 9.15294 81.0222 8.97837 81.192 8.8542L83.8287 6.92687C83.8996 6.8749 83.9523 6.80185 83.9793 6.71814C84.0063 6.63444 84.0061 6.54436 83.9788 6.46076C83.9515 6.37715 83.8985 6.3043 83.8274 6.2526C83.7563 6.2009 83.6706 6.173 83.5827 6.17287H80.3333C80.1215 6.17281 79.9152 6.10552 79.7441 5.98067C79.5731 5.85583 79.446 5.67988 79.3813 5.4782L78.4 2.4042C78.373 2.32007 78.3199 2.24668 78.2485 2.19462C78.1771 2.14256 78.091 2.11451 78.0027 2.11451C77.9143 2.11451 77.8282 2.14256 77.7568 2.19462C77.6854 2.24668 77.6324 2.32007 77.6053 2.4042L76.6167 5.47887C76.5521 5.68023 76.4254 5.85594 76.2547 5.98075C76.084 6.10556 75.8781 6.17306 75.6667 6.17353H72.42Z" fill="#B0B4B7"/>
</g>
<g clip-path="url(#clip4_1_262)">
<path d="M96.568 15.6249C96.0592 15.6226 95.5642 15.4592 95.154 15.1582C94.7348 14.8633 94.422 14.441 94.2621 13.954C94.1023 13.4671 94.1039 12.9415 94.2667 12.4555L95.0467 10.0429L92.9933 8.54153C92.5816 8.24073 92.2756 7.81742 92.1191 7.33216C91.9625 6.8469 91.9635 6.32457 92.1218 5.83988C92.2801 5.3552 92.5877 4.933 93.0004 4.6337C93.4132 4.33439 93.9101 4.17333 94.42 4.17353H96.9333L97.6967 1.79353C97.8533 1.30616 98.1606 0.88108 98.5743 0.579519C98.988 0.277959 99.4867 0.115479 99.9987 0.115479C100.511 0.115479 101.009 0.277959 101.423 0.579519C101.837 0.88108 102.144 1.30616 102.301 1.79353L103.067 4.17353H105.58C106.09 4.17347 106.587 4.33464 106.999 4.63399C107.412 4.93334 107.719 5.35554 107.878 5.8402C108.036 6.32485 108.037 6.84713 107.88 7.33232C107.724 7.81751 107.418 8.24077 107.006 8.54153L104.953 10.0429L105.733 12.4555C105.891 12.9422 105.889 13.4662 105.73 13.9522C105.571 14.4382 105.261 14.8611 104.846 15.1601C104.431 15.4591 103.932 15.6187 103.421 15.6161C102.909 15.6135 102.412 15.4487 102 15.1455L100 13.6749L98 15.1462C97.5862 15.4549 97.0843 15.6226 96.568 15.6249ZM94.42 6.17353C94.332 6.17352 94.2463 6.20133 94.175 6.25298C94.1038 6.30462 94.0507 6.37747 94.0233 6.46111C93.996 6.54474 93.9957 6.63488 94.0227 6.71865C94.0496 6.80242 94.1024 6.87553 94.1733 6.92753L96.8107 8.85487C96.9805 8.97904 97.1068 9.15361 97.1717 9.35373C97.2366 9.55386 97.2367 9.76934 97.172 9.96953L96.172 13.0695C96.1443 13.1536 96.144 13.2444 96.1712 13.3286C96.1984 13.4129 96.2517 13.4863 96.3234 13.5383C96.3951 13.5902 96.4815 13.618 96.5701 13.6176C96.6586 13.6173 96.7447 13.5888 96.816 13.5362L99.4087 11.6289C99.5804 11.5025 99.7881 11.4343 100.001 11.4343C100.215 11.4343 100.422 11.5025 100.594 11.6289L103.187 13.5355C103.258 13.5886 103.344 13.6175 103.433 13.6181C103.522 13.6187 103.608 13.5909 103.68 13.5388C103.752 13.4868 103.805 13.4131 103.832 13.3285C103.86 13.244 103.859 13.153 103.831 13.0689L102.831 9.96887C102.766 9.76868 102.766 9.55319 102.831 9.35307C102.896 9.15294 103.022 8.97837 103.192 8.8542L105.829 6.92687C105.9 6.8749 105.952 6.80185 105.979 6.71814C106.006 6.63444 106.006 6.54436 105.979 6.46076C105.952 6.37715 105.899 6.3043 105.827 6.2526C105.756 6.2009 105.671 6.173 105.583 6.17287H102.333C102.122 6.17281 101.915 6.10552 101.744 5.98067C101.573 5.85583 101.446 5.67988 101.381 5.4782L100.4 2.4042C100.373 2.32007 100.32 2.24668 100.249 2.19462C100.177 2.14256 100.091 2.11451 100.003 2.11451C99.9143 2.11451 99.8282 2.14256 99.7568 2.19462C99.6854 2.24668 99.6324 2.32007 99.6053 2.4042L98.6167 5.47887C98.5521 5.68023 98.4254 5.85594 98.2547 5.98075C98.084 6.10556 97.8781 6.17306 97.6667 6.17353H94.42Z" fill="#B0B4B7"/>
</g>
<defs>
<clipPath id="clip0_1_262">
<rect width="16" height="16" fill="white"/>
</clipPath>
<clipPath id="clip1_1_262">
<rect width="16" height="16" fill="white" transform="translate(23)"/>
</clipPath>
<clipPath id="clip2_1_262">
<rect width="16" height="16" fill="white" transform="translate(46)"/>
</clipPath>
<clipPath id="clip3_1_262">
<rect width="16" height="16" fill="white" transform="translate(70)"/>
</clipPath>
<clipPath id="clip4_1_262">
<rect width="16" height="16" fill="white" transform="translate(92)"/>
</clipPath>
</defs>
</svg>
