<svg width="108" height="16" viewBox="0 0 108 16" fill="none" xmlns="http://www.w3.org/2000/svg">
<g clip-path="url(#clip0_1_233)">
<path d="M0.884551 8.26684L3.25788 10.0002L2.35655 12.7915C2.21089 13.2244 2.20905 13.6928 2.35129 14.1269C2.49353 14.561 2.77225 14.9374 3.14588 15.2002C3.51312 15.4714 3.95815 15.6166 4.41465 15.6144C4.87116 15.6121 5.31471 15.4624 5.67922 15.1875L7.99989 13.4795L10.3212 15.1855C10.6878 15.4551 11.1304 15.6016 11.5855 15.6038C12.0405 15.606 12.4846 15.4639 12.8537 15.1978C13.2229 14.9318 13.4982 14.5555 13.6401 14.1232C13.7819 13.6908 13.783 13.2246 13.6432 12.7915L12.7419 10.0002L15.1152 8.26684C15.4813 7.99918 15.7535 7.62267 15.8928 7.1911C16.0321 6.75953 16.0315 6.29496 15.891 5.86377C15.7505 5.43257 15.4774 5.05679 15.1106 4.79011C14.7438 4.52343 14.3021 4.37949 13.8486 4.37884H10.9332L10.0486 1.62151C9.90943 1.18748 9.63606 0.808849 9.26786 0.540217C8.89967 0.271584 8.45566 0.126831 7.99989 0.126831C7.54411 0.126831 7.10011 0.271584 6.73191 0.540217C6.36371 0.808849 6.09034 1.18748 5.95122 1.62151L5.06655 4.37884H2.15388C1.70038 4.37949 1.25868 4.52343 0.891871 4.79011C0.525063 5.05679 0.251912 5.43257 0.111432 5.86377C-0.0290475 6.29496 -0.0296693 6.75953 0.109656 7.1911C0.24898 7.62267 0.521125 7.99918 0.887218 8.26684H0.884551Z" fill="#FFE605"/>
</g>
<g clip-path="url(#clip1_1_233)">
<path d="M23.8846 8.26684L26.2579 10.0002L25.3566 12.7915C25.2109 13.2244 25.209 13.6928 25.3513 14.1269C25.4935 14.561 25.7722 14.9374 26.1459 15.2002C26.5131 15.4714 26.9581 15.6166 27.4147 15.6144C27.8712 15.6121 28.3147 15.4624 28.6792 15.1875L30.9999 13.4795L33.3212 15.1855C33.6878 15.4551 34.1304 15.6016 34.5855 15.6038C35.0405 15.606 35.4846 15.4639 35.8537 15.1978C36.2229 14.9318 36.4982 14.5555 36.6401 14.1232C36.7819 13.6908 36.783 13.2246 36.6432 12.7915L35.7419 10.0002L38.1152 8.26684C38.4813 7.99918 38.7535 7.62267 38.8928 7.1911C39.0321 6.75953 39.0315 6.29496 38.891 5.86377C38.7505 5.43257 38.4774 5.05679 38.1106 4.79011C37.7438 4.52343 37.3021 4.37949 36.8486 4.37884H33.9332L33.0486 1.62151C32.9094 1.18748 32.6361 0.808849 32.2679 0.540217C31.8997 0.271584 31.4557 0.126831 30.9999 0.126831C30.5441 0.126831 30.1001 0.271584 29.7319 0.540217C29.3637 0.808849 29.0903 1.18748 28.9512 1.62151L28.0666 4.37884H25.1539C24.7004 4.37949 24.2587 4.52343 23.8919 4.79011C23.5251 5.05679 23.2519 5.43257 23.1114 5.86377C22.971 6.29496 22.9703 6.75953 23.1097 7.1911C23.249 7.62267 23.5211 7.99918 23.8872 8.26684H23.8846Z" fill="#FFE605"/>
</g>
<g clip-path="url(#clip2_1_233)">
<path d="M46.8846 8.26684L49.2579 10.0002L48.3566 12.7915C48.2109 13.2244 48.209 13.6928 48.3513 14.1269C48.4935 14.561 48.7722 14.9374 49.1459 15.2002C49.5131 15.4714 49.9581 15.6166 50.4147 15.6144C50.8712 15.6121 51.3147 15.4624 51.6792 15.1875L53.9999 13.4795L56.3212 15.1855C56.6878 15.4551 57.1304 15.6016 57.5855 15.6038C58.0405 15.606 58.4846 15.4639 58.8537 15.1978C59.2229 14.9318 59.4982 14.5555 59.6401 14.1232C59.7819 13.6908 59.783 13.2246 59.6432 12.7915L58.7419 10.0002L61.1152 8.26684C61.4813 7.99918 61.7535 7.62267 61.8928 7.1911C62.0321 6.75953 62.0315 6.29496 61.891 5.86377C61.7505 5.43257 61.4774 5.05679 61.1106 4.79011C60.7438 4.52343 60.3021 4.37949 59.8486 4.37884H56.9332L56.0486 1.62151C55.9094 1.18748 55.6361 0.808849 55.2679 0.540217C54.8997 0.271584 54.4557 0.126831 53.9999 0.126831C53.5441 0.126831 53.1001 0.271584 52.7319 0.540217C52.3637 0.808849 52.0903 1.18748 51.9512 1.62151L51.0666 4.37884H48.1539C47.7004 4.37949 47.2587 4.52343 46.8919 4.79011C46.5251 5.05679 46.2519 5.43257 46.1114 5.86377C45.971 6.29496 45.9703 6.75953 46.1097 7.1911C46.249 7.62267 46.5211 7.99918 46.8872 8.26684H46.8846Z" fill="#FFE605"/>
</g>
<g clip-path="url(#clip3_1_233)">
<path d="M69.8846 8.26684L72.2579 10.0002L71.3566 12.7915C71.2109 13.2244 71.209 13.6928 71.3513 14.1269C71.4935 14.561 71.7722 14.9374 72.1459 15.2002C72.5131 15.4714 72.9581 15.6166 73.4147 15.6144C73.8712 15.6121 74.3147 15.4624 74.6792 15.1875L76.9999 13.4795L79.3212 15.1855C79.6878 15.4551 80.1304 15.6016 80.5855 15.6038C81.0405 15.606 81.4846 15.4639 81.8537 15.1978C82.2229 14.9318 82.4982 14.5555 82.6401 14.1232C82.7819 13.6908 82.783 13.2246 82.6432 12.7915L81.7419 10.0002L84.1152 8.26684C84.4813 7.99918 84.7535 7.62267 84.8928 7.1911C85.0321 6.75953 85.0315 6.29496 84.891 5.86377C84.7505 5.43257 84.4774 5.05679 84.1106 4.79011C83.7438 4.52343 83.3021 4.37949 82.8486 4.37884H79.9332L79.0486 1.62151C78.9094 1.18748 78.6361 0.808849 78.2679 0.540217C77.8997 0.271584 77.4557 0.126831 76.9999 0.126831C76.5441 0.126831 76.1001 0.271584 75.7319 0.540217C75.3637 0.808849 75.0903 1.18748 74.9512 1.62151L74.0666 4.37884H71.1539C70.7004 4.37949 70.2587 4.52343 69.8919 4.79011C69.5251 5.05679 69.2519 5.43257 69.1114 5.86377C68.971 6.29496 68.9703 6.75953 69.1097 7.1911C69.249 7.62267 69.5211 7.99918 69.8872 8.26684H69.8846Z" fill="#FFE605"/>
</g>
<g clip-path="url(#clip4_1_233)">
<path d="M96.568 15.6249C96.0592 15.6226 95.5642 15.4592 95.154 15.1582C94.7348 14.8633 94.422 14.441 94.2622 13.954C94.1023 13.4671 94.1039 12.9415 94.2667 12.4555L95.0467 10.0429L92.9934 8.54153C92.5817 8.24073 92.2756 7.81742 92.1191 7.33216C91.9626 6.8469 91.9635 6.32457 92.1218 5.83988C92.2801 5.3552 92.5877 4.933 93.0005 4.6337C93.4133 4.33439 93.9101 4.17333 94.42 4.17353H96.9334L97.6967 1.79353C97.8534 1.30616 98.1607 0.88108 98.5743 0.579519C98.988 0.277959 99.4868 0.115479 99.9987 0.115479C100.511 0.115479 101.009 0.277959 101.423 0.579519C101.837 0.88108 102.144 1.30616 102.301 1.79353L103.067 4.17353H105.58C106.09 4.17347 106.587 4.33464 106.999 4.63399C107.412 4.93334 107.719 5.35554 107.878 5.8402C108.036 6.32485 108.037 6.84713 107.88 7.33232C107.724 7.81751 107.418 8.24077 107.006 8.54153L104.953 10.0429L105.733 12.4555C105.891 12.9422 105.889 13.4662 105.73 13.9522C105.571 14.4382 105.261 14.8611 104.846 15.1601C104.431 15.4591 103.932 15.6187 103.421 15.6161C102.909 15.6135 102.412 15.4487 102 15.1455L100 13.6749L98 15.1462C97.5862 15.4549 97.0843 15.6226 96.568 15.6249ZM94.42 6.17353C94.332 6.17352 94.2463 6.20133 94.175 6.25298C94.1038 6.30462 94.0507 6.37747 94.0233 6.46111C93.996 6.54474 93.9958 6.63488 94.0227 6.71865C94.0496 6.80242 94.1024 6.87553 94.1734 6.92753L96.8107 8.85487C96.9805 8.97904 97.1069 9.15361 97.1717 9.35373C97.2366 9.55386 97.2367 9.76934 97.172 9.96953L96.172 13.0695C96.1443 13.1536 96.144 13.2444 96.1712 13.3286C96.1984 13.4129 96.2518 13.4863 96.3235 13.5383C96.3952 13.5902 96.4815 13.618 96.5701 13.6176C96.6586 13.6173 96.7448 13.5888 96.816 13.5362L99.4087 11.6289C99.5805 11.5025 99.7881 11.4343 100.001 11.4343C100.215 11.4343 100.422 11.5025 100.594 11.6289L103.187 13.5355C103.258 13.5886 103.344 13.6175 103.433 13.6181C103.522 13.6187 103.608 13.5909 103.68 13.5388C103.752 13.4868 103.805 13.4131 103.832 13.3285C103.86 13.244 103.859 13.153 103.831 13.0689L102.831 9.96887C102.766 9.76868 102.766 9.55319 102.831 9.35307C102.896 9.15294 103.022 8.97837 103.192 8.8542L105.829 6.92687C105.9 6.8749 105.952 6.80185 105.979 6.71814C106.006 6.63444 106.006 6.54436 105.979 6.46076C105.952 6.37715 105.899 6.3043 105.827 6.2526C105.756 6.2009 105.671 6.173 105.583 6.17287H102.333C102.122 6.17281 101.915 6.10552 101.744 5.98067C101.573 5.85583 101.446 5.67988 101.381 5.4782L100.4 2.4042C100.373 2.32007 100.32 2.24668 100.249 2.19462C100.177 2.14256 100.091 2.11451 100.003 2.11451C99.9143 2.11451 99.8282 2.14256 99.7568 2.19462C99.6854 2.24668 99.6324 2.32007 99.6054 2.4042L98.6167 5.47887C98.5521 5.68023 98.4254 5.85594 98.2547 5.98075C98.084 6.10556 97.8782 6.17306 97.6667 6.17353H94.42Z" fill="#B0B4B7"/>
</g>
<defs>
<clipPath id="clip0_1_233">
<rect width="16" height="16" fill="white"/>
</clipPath>
<clipPath id="clip1_1_233">
<rect width="16" height="16" fill="white" transform="translate(23)"/>
</clipPath>
<clipPath id="clip2_1_233">
<rect width="16" height="16" fill="white" transform="translate(46)"/>
</clipPath>
<clipPath id="clip3_1_233">
<rect width="16" height="16" fill="white" transform="translate(69)"/>
</clipPath>
<clipPath id="clip4_1_233">
<rect width="16" height="16" fill="white" transform="translate(92)"/>
</clipPath>
</defs>
</svg>
